<?xml version="1.0" standalone="no"?>
<!DOCTYPE svg PUBLIC "-//W3C//DTD SVG 20010904//EN"
 "http://www.w3.org/TR/2001/REC-SVG-20010904/DTD/svg10.dtd">
<svg version="1.0" xmlns="http://www.w3.org/2000/svg"
 width="1858.000000pt" height="1858.000000pt" viewBox="0 0 1858.000000 1858.000000"
 preserveAspectRatio="xMidYMid meet">
<metadata>
Created by potrace 1.14, written by Peter Selinger 2001-2017
</metadata>
<g transform="translate(0.000000,1858.000000) scale(0.100000,-0.100000)"
fill="#000000" stroke="none">
<path d="M10095 18560 c-27 -4 -66 -10 -85 -13 -19 -3 -55 -8 -80 -12 -25 -3
-52 -8 -60 -10 -8 -2 -35 -7 -60 -10 -25 -3 -137 -24 -250 -46 -113 -22 -216
-43 -230 -45 -14 -3 -61 -14 -105 -25 -44 -12 -87 -22 -95 -24 -300 -62 -1054
-311 -1365 -449 -16 -8 -64 -28 -105 -46 -41 -17 -102 -44 -135 -60 -33 -15
-82 -38 -110 -50 -27 -12 -130 -62 -228 -112 -775 -388 -1487 -880 -2142
-1481 -186 -171 -506 -496 -645 -657 -36 -41 -74 -84 -85 -96 -11 -11 -29 -32
-40 -45 -11 -13 -46 -55 -79 -94 -88 -106 -85 -102 -177 -220 -249 -318 -551
-764 -721 -1064 -355 -625 -582 -1133 -800 -1786 -30 -90 -145 -483 -152 -520
-3 -11 -18 -72 -34 -135 -16 -63 -33 -133 -37 -155 -5 -22 -9 -42 -10 -45 -3
-11 -16 -66 -21 -90 -11 -53 -73 -387 -79 -425 -3 -23 -7 -50 -9 -60 -12 -68
-30 -195 -41 -295 -4 -30 -8 -66 -11 -80 -2 -14 -6 -56 -10 -95 -3 -38 -7 -81
-9 -94 -2 -12 -7 -60 -10 -105 -4 -44 -9 -101 -11 -126 -25 -296 -24 -1131 1
-1334 3 -23 7 -70 9 -106 8 -109 16 -204 21 -230 2 -14 7 -56 11 -95 3 -38 8
-78 10 -89 2 -10 6 -44 9 -75 4 -31 8 -63 10 -71 2 -8 7 -35 10 -60 3 -25 8
-56 10 -70 3 -14 7 -41 10 -60 13 -83 77 -421 91 -480 8 -36 35 -146 59 -245
202 -820 534 -1649 951 -2374 11 -20 36 -63 54 -96 121 -217 516 -800 663
-981 19 -23 123 -153 140 -174 30 -38 214 -257 232 -276 11 -11 38 -41 59 -65
102 -113 149 -164 281 -299 257 -262 411 -405 721 -667 318 -270 878 -663
1226 -862 18 -10 65 -37 103 -59 212 -122 591 -314 811 -411 76 -34 148 -66
159 -71 79 -36 427 -171 431 -167 1 1 -34 32 -79 69 -230 190 -503 455 -712
693 -38 44 -73 82 -76 85 -16 14 -254 317 -310 395 -60 82 -197 283 -226 330
-7 11 -39 63 -71 115 -151 241 -320 568 -442 855 -93 217 -223 576 -261 720
-4 17 -15 55 -24 85 -9 30 -17 62 -20 70 -2 8 -19 80 -39 160 -45 184 -55 228
-61 265 -3 17 -14 77 -25 135 -20 106 -24 132 -35 205 -3 23 -7 50 -9 60 -2
11 -7 52 -10 90 -4 39 -9 77 -11 85 -3 15 -15 121 -20 190 -15 218 -19 325
-19 560 1 247 9 472 19 540 2 14 9 78 15 143 6 66 13 126 15 135 1 10 6 42 10
72 4 30 9 62 10 70 2 14 7 42 21 135 12 76 76 384 99 477 95 376 257 840 402
1148 185 392 309 615 528 945 141 213 384 535 490 649 6 6 44 49 85 96 41 47
134 146 207 220 118 120 130 136 117 151 -8 8 -14 18 -14 21 0 3 -17 35 -38
69 -82 136 -232 425 -296 569 -113 258 -262 677 -301 850 -2 8 -17 71 -34 140
-29 121 -67 308 -77 380 -2 19 -6 44 -9 55 -2 11 -7 43 -10 70 -4 28 -8 61
-11 75 -2 14 -6 48 -9 75 -3 28 -7 66 -10 85 -27 242 -27 871 0 1085 2 17 7
59 11 95 3 36 8 72 9 81 2 9 6 40 10 69 4 29 8 60 10 69 1 9 6 36 10 61 4 25
9 54 12 65 2 11 6 31 8 45 2 14 9 50 15 80 6 30 13 66 16 80 3 14 7 33 10 42
3 10 7 28 9 40 3 13 14 59 25 103 12 44 23 89 25 100 11 52 112 365 157 484
150 402 346 787 581 1144 83 125 257 361 326 442 24 28 52 61 64 75 189 230
526 557 777 756 41 32 77 61 80 64 3 4 28 22 55 41 28 18 52 37 55 40 14 17
332 226 455 299 137 81 401 220 520 273 65 29 54 33 -50 17z"/>
<path d="M12657 18454 c-1 -1 -47 -4 -103 -8 -55 -3 -120 -9 -145 -12 -67 -8
-192 -26 -214 -30 -11 -3 -36 -7 -55 -10 -50 -8 -248 -52 -290 -65 -19 -5 -44
-12 -55 -14 -11 -3 -76 -23 -145 -46 -1134 -374 -2017 -1257 -2383 -2385 -71
-220 -135 -497 -153 -659 -3 -32 -7 -66 -9 -76 -26 -134 -26 -689 -1 -849 2
-14 7 -47 10 -75 3 -27 8 -62 11 -77 8 -47 14 -80 26 -143 5 -33 17 -87 26
-120 8 -33 17 -69 19 -79 19 -98 112 -373 181 -536 54 -127 159 -338 213 -427
22 -36 40 -67 40 -69 0 -8 129 -195 199 -289 178 -237 393 -463 606 -635 44
-36 82 -68 85 -71 10 -11 191 -140 263 -186 260 -167 546 -304 851 -408 60
-20 118 -39 128 -41 10 -2 26 -6 36 -9 122 -32 171 -45 192 -49 14 -2 57 -11
95 -20 87 -19 142 -28 258 -41 34 -4 70 -9 80 -11 140 -27 701 -21 852 9 17 4
55 9 85 12 30 4 74 11 98 16 23 5 59 12 80 15 20 3 55 10 77 16 22 5 51 12 65
15 111 20 417 121 583 192 189 81 526 259 535 283 2 4 8 8 14 8 12 0 99 59
245 168 508 377 943 932 1182 1507 23 55 46 109 51 120 40 92 159 493 175 595
12 70 16 96 25 135 4 22 11 67 15 100 4 32 8 67 10 77 2 9 6 50 10 90 3 40 8
98 10 128 7 79 7 372 1 455 -12 141 -23 246 -36 325 -5 30 -12 69 -14 85 -3
17 -8 48 -12 70 -3 22 -25 117 -49 210 -206 806 -672 1518 -1324 2025 -53 41
-117 88 -141 105 -25 16 -47 32 -50 35 -20 23 -256 160 -405 236 -240 122
-463 209 -705 276 -85 23 -324 75 -385 83 -22 3 -49 8 -60 10 -11 1 -45 6 -75
10 -30 4 -66 8 -78 10 -73 12 -535 27 -545 19z"/>
<path d="M10118 10861 c-544 -233 -1065 -565 -1518 -965 -71 -64 -398 -394
-461 -466 -192 -221 -361 -442 -491 -645 -77 -119 -188 -302 -188 -310 0 -3
-12 -24 -26 -47 -34 -53 -162 -311 -220 -442 -25 -56 -49 -110 -54 -121 -23
-47 -112 -294 -159 -438 -52 -162 -134 -469 -155 -587 -3 -14 -12 -61 -20
-105 -16 -84 -40 -241 -51 -335 -3 -30 -8 -66 -10 -80 -43 -311 -38 -909 10
-1275 2 -16 7 -52 10 -80 4 -27 8 -61 11 -75 2 -14 9 -54 14 -90 6 -36 24
-130 41 -210 37 -178 34 -166 49 -220 7 -25 13 -49 15 -55 50 -220 204 -656
322 -915 71 -153 199 -401 250 -482 13 -21 23 -40 23 -43 0 -16 221 -348 323
-485 248 -333 560 -669 847 -910 36 -30 67 -58 70 -61 3 -3 52 -43 110 -88 58
-45 112 -88 120 -94 68 -54 333 -231 455 -304 226 -135 585 -326 780 -413 28
-12 73 -34 100 -47 70 -34 338 -147 475 -200 242 -94 743 -263 781 -263 13 0
34 58 63 180 2 8 13 51 24 95 12 44 28 116 36 160 9 44 18 91 21 105 3 14 8
37 10 52 2 15 8 53 14 85 14 79 22 132 26 168 1 17 5 53 9 80 11 96 16 143 22
226 3 46 8 102 10 124 5 59 5 528 0 615 -5 103 -16 240 -21 270 -2 14 -6 50
-10 80 -3 30 -7 66 -9 80 -2 14 -6 50 -10 80 -4 30 -9 62 -11 70 -2 8 -7 35
-10 60 -3 25 -8 52 -11 61 -3 10 -6 30 -8 45 -2 16 -11 59 -20 95 -8 37 -17
78 -20 90 -29 161 -145 550 -220 742 -14 37 -37 95 -50 130 -64 162 -214 474
-301 627 -21 36 -46 81 -57 100 -39 68 -152 246 -207 325 -93 136 -291 397
-321 425 -3 3 -30 34 -60 70 -74 88 -155 176 -344 370 -293 304 -568 715 -721
1080 -15 36 -35 83 -45 105 -25 56 -117 331 -136 407 -19 77 -61 262 -68 303
-3 17 -8 39 -10 50 -2 11 -7 43 -10 70 -4 28 -8 61 -11 75 -2 14 -7 52 -10 85
-3 33 -8 87 -11 120 -18 187 -6 583 26 790 5 39 13 88 16 110 3 22 12 72 21
110 8 39 17 81 19 95 3 14 14 59 25 100 137 508 335 916 642 1325 33 44 63 82
66 85 3 3 38 44 78 91 39 48 119 134 178 193 58 58 102 106 98 106 -4 0 -70
-27 -145 -59z"/>
<path d="M12688 10055 c-2 -1 -32 -5 -68 -9 -36 -3 -74 -8 -85 -10 -11 -2 -40
-7 -65 -11 -65 -11 -69 -11 -138 -30 -376 -97 -729 -329 -983 -645 -113 -140
-226 -342 -289 -513 -38 -104 -85 -290 -94 -368 -4 -31 -9 -67 -12 -80 -6 -31
-7 -334 -1 -379 3 -19 8 -59 12 -89 12 -97 44 -226 85 -346 130 -374 390 -709
728 -937 197 -133 484 -248 702 -282 89 -14 108 -17 145 -22 58 -7 313 -7 365
0 41 6 156 23 205 31 36 5 246 67 290 85 85 34 285 139 355 185 400 268 683
676 790 1140 57 248 60 530 9 786 -127 644 -597 1179 -1224 1396 -88 30 -244
69 -310 78 -27 3 -66 8 -85 11 -36 5 -327 13 -332 9z"/>
</g>
</svg>
