<svg version="1.2" xmlns="http://www.w3.org/2000/svg" viewBox="0 0 5000 987" width="5000" height="987">
	<style>
		tspan { white-space:pre } 
		text { font-size: 72px; fill: #ffffff; font-weight: bold; font-family: "Ebrima" } 
	</style>
	<g fill="#ffffff" transform="translate(942.5, 26) scale(1.865)">
		<circle cx="277.726" cy="271.669" r="35.714"/>
		<circle cx="277.726" cy="146.513" r="71.429"/>
		<path d="M167.735,143.023c-7.996,29.827-2.568,60.094,12.559,84.387 c-8.461,8.155-15.832,17.574-21.885,28.045c-16.976,29.402-21.486,63.646-12.692,96.44c7.118,26.581,22.404,49.318,42.719,65.788 C120.147,392.604,71.429,326.99,71.429,250c0-91.105,68.222-166.272,156.387-177.195 C199.239,85.484,176.45,110.482,167.735,143.023z"/>
		<path d="M215.433,412.103c-24-13.676-42.728-36.582-50.442-65.372c-14.244-53.16,14.1-107.7,64.119-127.39 c-14.032,13.043-22.812,31.66-22.812,52.328c0,19.724,7.995,37.582,20.921,50.508c28.766,28.766,37.743,69.863,26.955,106.309 C240.938,424.642,227.934,419.226,215.433,412.103z"/>
	</g>
	<text id="D" style="transform: matrix(9.196,0,0,9.199,408.82,725.625)" >
		<tspan x="0" y="0">D</tspan>
	</text>
	<text id="M A T I S" style="transform: matrix(9.196,0,0,9.199,1758.82,725.625)" >
		<tspan x="0" y="0" class="t0">M A T I S</tspan>
	</text>
</svg>
