<svg xmlns="http://www.w3.org/2000/svg" version="1.1" xmlns:xlink="http://www.w3.org/1999/xlink" width="1000" height="1000"><style>
    #light-icon {
      display: inline;
    }
    #dark-icon {
      display: none;
    }

    @media (prefers-color-scheme: dark) {
      #light-icon {
        display: none;
      }
      #dark-icon {
        display: inline;
      }
    }
  </style><g id="light-icon"><svg xmlns="http://www.w3.org/2000/svg" version="1.1" xmlns:xlink="http://www.w3.org/1999/xlink" width="1000" height="1000"><g><g transform="matrix(2.808988764044944,0,0,2.808988764044944,109.55056179775278,-5.684341886080802e-14)"><svg xmlns="http://www.w3.org/2000/svg" version="1.1" xmlns:xlink="http://www.w3.org/1999/xlink" width="278" height="356"><svg version="1.2" xmlns="http://www.w3.org/2000/svg" xmlns:xlink="http://www.w3.org/1999/xlink" width="278" height="356" viewBox="0 0 278 356" fill="#000">
  <circle r="35.714" cy="198.864" cx="206.297"></circle>
  <circle r="71.429" cy="73.708" cx="206.297"></circle>
  <path d="m96.306,70.218c-7.996,29.827 -2.568,60.094 12.559,84.387c-8.461,8.155 -15.832,17.574 -21.885,28.045c-16.976,29.402 -21.486,63.646 -12.692,96.44c7.118,26.581 22.404,49.318 42.719,65.788c-68.289,-25.079 -117.007,-90.693 -117.007,-167.683c0,-91.105 68.222,-166.272 156.387,-177.195c-28.577,12.679 -51.366,37.677 -60.081,70.218z"></path>
  <path d="m144.004,339.298c-24,-13.676 -42.728,-36.582 -50.442,-65.372c-14.244,-53.16 14.1,-107.7 64.119,-127.39c-14.032,13.043 -22.812,31.66 -22.812,52.328c0,19.724 7.995,37.582 20.921,50.508c28.766,28.766 37.743,69.863 26.955,106.309c-13.236,-3.844 -26.24,-9.26 -38.741,-16.383z"></path>
</svg></svg></g></g></svg></g><g id="dark-icon"><svg xmlns="http://www.w3.org/2000/svg" version="1.1" xmlns:xlink="http://www.w3.org/1999/xlink" width="1000" height="1000"><g><g transform="matrix(2.808988764044944,0,0,2.808988764044944,109.55056179775278,-5.684341886080802e-14)"><svg xmlns="http://www.w3.org/2000/svg" version="1.1" xmlns:xlink="http://www.w3.org/1999/xlink" width="278" height="356"><svg version="1.1" xmlns="http://www.w3.org/2000/svg" xmlns:xlink="http://www.w3.org/1999/xlink" width="278" height="356" viewBox="0 0 278 356" fill="#fff">
  <circle r="35.714" cy="198.864" cx="206.297"></circle>
  <circle r="71.429" cy="73.708" cx="206.297"></circle>
  <path d="m96.306,70.218c-7.996,29.827 -2.568,60.094 12.559,84.387c-8.461,8.155 -15.832,17.574 -21.885,28.045c-16.976,29.402 -21.486,63.646 -12.692,96.44c7.118,26.581 22.404,49.318 42.719,65.788c-68.289,-25.079 -117.007,-90.693 -117.007,-167.683c0,-91.105 68.222,-166.272 156.387,-177.195c-28.577,12.679 -51.366,37.677 -60.081,70.218z"></path>
  <path d="m144.004,339.298c-24,-13.676 -42.728,-36.582 -50.442,-65.372c-14.244,-53.16 14.1,-107.7 64.119,-127.39c-14.032,13.043 -22.812,31.66 -22.812,52.328c0,19.724 7.995,37.582 20.921,50.508c28.766,28.766 37.743,69.863 26.955,106.309c-13.236,-3.844 -26.24,-9.26 -38.741,-16.383z"></path>
</svg></svg></g></g></svg></g></svg>