<?xml version="1.0" standalone="no"?>
<!DOCTYPE svg PUBLIC "-//W3C//DTD SVG 20010904//EN"
 "http://www.w3.org/TR/2001/REC-SVG-20010904/DTD/svg10.dtd">
<svg version="1.0" xmlns="http://www.w3.org/2000/svg"
 width="2750.000000pt" height="2750.000000pt" viewBox="0 0 2750.000000 2750.000000"
 preserveAspectRatio="xMidYMid meet">
<metadata>
Created by potrace 1.14, written by Peter Selinger 2001-2017
</metadata>
<g transform="translate(0.000000,2750.000000) scale(0.100000,-0.100000)"
fill="#000000" stroke="none">
<path d="M16020 27478 c-58 -10 -121 -20 -140 -24 -19 -3 -98 -19 -175 -36
-77 -16 -147 -31 -155 -33 -8 -1 -33 -8 -55 -14 -22 -5 -55 -13 -73 -16 -18
-3 -65 -12 -105 -21 -39 -8 -83 -18 -97 -20 -14 -3 -54 -12 -90 -20 -79 -19
-97 -23 -131 -29 -83 -15 -660 -173 -749 -205 -14 -5 -92 -30 -175 -55 -238
-74 -563 -185 -795 -270 -224 -83 -510 -193 -555 -215 -11 -5 -60 -25 -110
-45 -49 -20 -110 -45 -134 -56 -24 -11 -64 -28 -90 -39 -25 -10 -81 -34 -124
-54 -43 -20 -80 -36 -82 -36 -5 0 -126 -56 -320 -148 -159 -75 -543 -270 -675
-342 -187 -102 -214 -117 -280 -154 -36 -20 -72 -40 -80 -46 -8 -5 -33 -19
-55 -31 -22 -12 -75 -44 -118 -70 -43 -27 -80 -49 -82 -49 -3 0 -35 -19 -72
-42 -38 -24 -77 -48 -88 -55 -121 -70 -634 -410 -773 -512 -123 -90 -477 -355
-512 -383 -19 -15 -89 -71 -155 -124 -66 -53 -134 -108 -151 -123 -17 -14 -52
-44 -79 -66 -27 -22 -53 -44 -59 -50 -6 -5 -40 -35 -76 -65 -35 -30 -72 -62
-80 -70 -9 -8 -54 -49 -101 -90 -330 -293 -788 -752 -1064 -1065 -33 -37 -69
-78 -80 -89 -43 -45 -308 -361 -408 -486 -7 -8 -32 -40 -57 -71 -25 -30 -56
-70 -70 -89 -14 -18 -50 -65 -80 -104 -62 -79 -259 -347 -335 -456 -27 -39
-54 -77 -60 -83 -17 -21 -46 -64 -186 -272 -250 -370 -496 -772 -685 -1115
-28 -52 -70 -129 -93 -170 -58 -104 -352 -698 -394 -795 -19 -44 -46 -105 -60
-135 -35 -77 -148 -346 -195 -465 -21 -55 -43 -109 -47 -120 -4 -11 -9 -24
-11 -30 -1 -5 -18 -50 -37 -100 -44 -114 -151 -427 -210 -615 -56 -179 -60
-193 -63 -205 -1 -5 -25 -93 -54 -195 -52 -188 -114 -431 -124 -485 -3 -16
-21 -102 -41 -190 -36 -165 -51 -246 -86 -445 -22 -128 -25 -143 -35 -215 -3
-27 -8 -58 -10 -68 -3 -19 -32 -228 -39 -292 -3 -22 -8 -56 -10 -75 -3 -19 -7
-60 -10 -90 -2 -30 -6 -80 -10 -110 -6 -55 -8 -76 -20 -225 -35 -439 -41
-1343 -10 -1635 2 -19 6 -82 10 -140 3 -58 8 -121 10 -140 2 -19 7 -66 10
-104 3 -38 7 -80 9 -95 3 -14 7 -57 11 -96 3 -38 8 -83 10 -100 3 -16 7 -52
10 -80 3 -27 10 -81 16 -120 5 -38 12 -88 15 -110 5 -41 9 -67 18 -120 3 -16
7 -43 10 -60 19 -121 59 -348 77 -435 11 -58 23 -118 26 -135 2 -16 23 -111
45 -210 22 -99 41 -187 43 -195 15 -76 124 -488 165 -630 17 -58 33 -112 35
-122 26 -115 307 -946 379 -1123 7 -16 37 -91 66 -165 172 -442 437 -1016 640
-1390 57 -104 102 -185 140 -255 55 -100 299 -504 361 -599 33 -49 59 -93 59
-96 0 -4 9 -15 20 -25 11 -10 20 -22 20 -26 0 -17 234 -354 424 -609 105 -142
318 -415 361 -464 6 -6 42 -49 80 -96 38 -47 72 -87 75 -90 3 -3 32 -36 65
-75 33 -38 62 -72 65 -75 3 -3 37 -41 75 -85 39 -44 79 -89 90 -101 11 -11 65
-70 120 -129 190 -206 562 -573 795 -785 51 -47 98 -90 104 -95 6 -6 63 -55
126 -110 63 -55 121 -105 128 -112 7 -7 34 -29 60 -50 26 -21 49 -41 52 -44 7
-8 509 -408 545 -434 24 -17 75 -55 110 -83 27 -20 243 -178 350 -254 139 -99
544 -370 647 -433 9 -5 78 -48 152 -95 75 -47 144 -90 154 -95 9 -6 80 -48
157 -94 76 -46 218 -128 315 -182 96 -55 182 -103 190 -108 14 -9 194 -109
315 -176 28 -15 64 -35 80 -45 30 -18 65 -37 345 -187 151 -80 154 -81 109
-40 -25 23 -69 62 -98 87 -30 25 -63 54 -75 65 -12 11 -37 33 -56 49 -36 29
-49 40 -251 212 -64 55 -137 117 -164 139 -26 22 -53 45 -59 50 -6 6 -67 59
-136 119 -262 230 -506 473 -716 716 -21 25 -41 47 -44 50 -3 3 -41 48 -85
100 -44 52 -82 97 -85 100 -9 8 -181 228 -251 320 -164 214 -418 586 -514 752
-14 23 -202 353 -234 408 -14 25 -26 47 -26 50 -1 3 -16 34 -35 70 -53 102
-113 227 -155 320 -20 47 -50 112 -64 145 -15 33 -40 92 -55 130 -16 39 -34
84 -41 100 -7 17 -25 64 -40 105 -14 41 -31 84 -35 95 -27 60 -127 382 -177
565 -27 102 -89 363 -96 405 -3 17 -12 64 -21 105 -19 94 -32 170 -51 305 -13
92 -15 109 -20 153 -3 26 -10 85 -15 132 -25 202 -34 414 -34 740 -1 262 6
485 18 605 3 22 7 72 10 110 4 39 11 108 16 155 6 47 12 105 15 130 3 25 7 56
10 70 2 14 7 43 10 65 3 22 17 108 31 190 14 83 28 164 31 180 2 17 8 46 13
65 5 19 12 51 15 70 3 19 12 63 20 96 8 34 16 73 19 85 30 163 221 826 273
949 3 8 7 20 9 25 8 31 103 278 139 360 169 393 368 790 477 952 15 23 28 44
28 47 0 4 49 84 145 233 82 129 279 406 372 523 376 476 807 918 1256 1291 67
56 131 109 142 118 11 9 70 55 130 101 61 46 112 87 115 90 14 15 261 191 420
298 63 42 117 79 120 82 3 3 75 50 162 105 139 88 155 101 148 119 -4 12 -47
101 -94 200 -47 98 -86 179 -86 181 0 1 -36 78 -81 171 -44 93 -93 196 -109
229 -15 33 -47 101 -70 150 -385 827 -637 1469 -850 2162 -17 56 -33 112 -35
124 -3 12 -11 43 -19 68 -43 139 -164 652 -181 771 -2 14 -10 63 -19 110 -9
47 -18 103 -21 125 -4 22 -12 81 -20 130 -7 50 -16 117 -20 150 -4 33 -8 74
-10 90 -2 17 -6 59 -10 95 -3 36 -8 81 -10 100 -4 34 -15 194 -21 315 -5 86
-4 639 0 707 14 200 17 247 21 278 2 19 7 62 10 95 19 203 54 425 102 650 14
66 26 127 28 135 22 108 108 406 164 570 186 546 423 1014 771 1523 175 257
437 581 673 831 99 105 330 336 381 381 6 6 54 48 106 95 152 135 289 248 430
355 36 27 70 53 75 57 6 4 24 18 40 31 87 67 499 347 510 347 3 0 35 20 72 44
165 106 493 286 743 407 80 38 153 74 164 80 67 38 493 216 816 342 101 39 83
43 -80 15z"/>
<path d="M18257 26724 c-1 -1 -69 -5 -152 -8 -82 -4 -163 -8 -180 -10 -16 -2
-66 -6 -110 -10 -44 -4 -91 -9 -105 -11 -14 -3 -43 -7 -65 -9 -230 -24 -676
-120 -938 -202 -370 -115 -716 -262 -1047 -442 -72 -39 -372 -222 -380 -231
-3 -4 -25 -19 -50 -35 -53 -33 -329 -241 -380 -286 -19 -17 -57 -49 -85 -73
-191 -162 -478 -459 -617 -637 -15 -19 -57 -73 -93 -120 -225 -288 -474 -724
-613 -1075 -100 -253 -193 -552 -218 -705 -3 -19 -8 -38 -10 -41 -2 -3 -6 -19
-8 -35 -3 -16 -8 -40 -11 -54 -10 -53 -25 -137 -31 -185 -3 -27 -7 -57 -9 -65
-2 -8 -6 -46 -10 -85 -4 -38 -9 -78 -11 -88 -21 -117 -21 -647 1 -822 2 -16 7
-55 10 -85 21 -184 65 -422 117 -620 40 -158 142 -461 194 -578 9 -20 22 -50
29 -67 153 -354 396 -755 652 -1075 163 -203 441 -489 637 -655 32 -28 66 -57
75 -66 53 -52 326 -255 476 -356 623 -415 1381 -707 2130 -820 17 -2 55 -8 85
-13 30 -5 78 -12 105 -15 28 -3 64 -8 80 -10 17 -2 62 -7 100 -10 39 -3 88 -8
110 -10 219 -22 698 -22 879 0 16 2 65 7 110 10 44 4 92 8 106 10 157 20 286
37 299 40 9 1 54 10 101 19 205 37 232 43 420 91 724 183 1390 510 1990 978
235 183 488 420 660 617 36 41 72 81 80 90 8 9 29 33 45 54 17 21 35 44 40 50
80 85 415 581 415 615 0 5 3 11 8 13 7 3 25 36 102 188 119 234 202 440 300
745 11 34 77 288 84 325 38 184 61 325 72 440 2 30 7 64 9 75 23 115 24 723 1
865 -2 14 -7 52 -10 85 -30 303 -121 684 -243 1015 -238 649 -603 1212 -1113
1720 -198 198 -328 311 -525 460 -55 41 -102 77 -105 80 -3 3 -12 10 -21 15
-8 6 -74 48 -145 95 -230 153 -310 199 -551 319 -218 109 -457 211 -638 272
-16 6 -39 14 -50 18 -25 10 -196 63 -290 90 -183 53 -515 125 -675 146 -25 3
-52 8 -60 10 -8 2 -40 7 -70 10 -30 3 -66 8 -80 10 -14 2 -56 7 -95 10 -38 3
-83 8 -100 10 -96 11 -618 27 -628 19z"/>
<path d="M16969 16416 c-2 -2 -33 -7 -69 -10 -36 -4 -74 -9 -85 -11 -11 -3
-31 -7 -45 -10 -165 -31 -431 -92 -525 -119 -27 -8 -66 -17 -85 -21 -19 -3
-46 -10 -60 -15 -14 -5 -92 -27 -175 -50 -279 -78 -791 -253 -990 -340 -11 -4
-72 -30 -135 -56 -322 -132 -703 -322 -1062 -529 -272 -156 -709 -449 -948
-635 -99 -77 -250 -198 -281 -224 -19 -17 -46 -40 -60 -51 -299 -250 -709
-651 -973 -953 -231 -264 -501 -620 -689 -907 -79 -122 -247 -394 -247 -401 0
-2 -13 -25 -28 -51 -72 -123 -213 -396 -297 -578 -45 -97 -155 -353 -155 -361
0 -3 -8 -24 -19 -47 -10 -23 -31 -76 -45 -117 -15 -41 -36 -95 -46 -120 -19
-49 -69 -201 -124 -380 -36 -118 -136 -501 -155 -600 -6 -30 -13 -64 -15 -75
-27 -128 -59 -314 -83 -480 -3 -22 -7 -48 -9 -58 -2 -10 -6 -48 -10 -85 -3
-36 -7 -74 -9 -83 -2 -9 -6 -52 -10 -95 -4 -43 -9 -95 -10 -114 -20 -203 -27
-800 -12 -1050 13 -215 17 -259 53 -560 5 -40 38 -257 50 -320 2 -14 7 -41 10
-60 3 -19 10 -55 16 -80 14 -63 16 -73 22 -112 3 -20 10 -47 15 -62 6 -14 9
-26 6 -26 -2 0 1 -15 6 -32 5 -18 12 -46 14 -61 19 -105 88 -343 182 -632 266
-818 681 -1606 1237 -2344 56 -73 110 -145 121 -160 32 -44 197 -245 219 -268
12 -12 26 -28 31 -35 12 -16 64 -76 164 -188 84 -95 452 -464 547 -550 106
-96 137 -123 209 -185 39 -33 72 -62 75 -66 15 -16 272 -218 380 -298 69 -51
132 -98 140 -104 78 -61 565 -377 581 -377 5 0 9 -4 9 -10 0 -5 5 -10 11 -10
6 0 44 -19 83 -43 39 -24 78 -46 86 -50 8 -4 31 -17 50 -28 120 -73 751 -389
777 -389 2 0 30 -12 61 -26 177 -81 609 -246 842 -322 301 -98 613 -189 740
-217 8 -2 71 -17 140 -34 109 -26 377 -82 450 -95 14 -2 36 -7 50 -10 14 -3
36 -8 50 -10 14 -3 47 -9 75 -15 27 -5 51 -8 52 -7 4 4 12 65 19 141 3 44 7
87 9 95 2 8 6 47 10 85 4 39 8 81 10 95 2 14 7 61 10 105 3 44 8 91 10 105 2
14 7 61 11 105 4 44 8 94 10 110 1 17 6 80 10 140 4 61 8 126 9 145 25 334 25
1121 0 1470 -2 30 -7 93 -10 140 -6 85 -8 104 -21 235 -16 170 -23 227 -35
320 -5 44 -12 91 -14 105 -2 14 -7 50 -10 80 -4 30 -11 76 -16 102 -4 26 -11
69 -14 95 -3 26 -10 68 -15 93 -5 25 -21 110 -35 190 -32 174 -105 511 -147
670 -16 63 -31 124 -33 134 -17 79 -143 499 -212 706 -75 226 -213 595 -264
707 -10 24 -19 45 -19 48 0 8 -163 380 -220 500 -28 61 -61 130 -72 155 -53
117 -342 688 -463 915 -161 301 -477 898 -572 1080 -126 241 -474 945 -548
1110 -314 695 -486 1192 -569 1650 -3 17 -8 44 -12 60 -3 17 -7 44 -9 60 -3
36 -25 191 -30 222 -26 155 -26 647 1 863 8 70 15 115 19 140 3 14 7 41 10 60
3 19 12 69 20 110 9 41 17 84 19 95 59 300 239 756 426 1080 93 162 261 411
352 520 185 225 319 363 562 580 45 40 189 154 281 221 254 187 487 326 834
499 272 136 422 201 569 246 34 11 62 22 62 24 0 6 -15 7 -21 1z"/>
<path d="M17778 15585 c-2 -2 -54 -6 -116 -10 -62 -3 -121 -8 -130 -10 -10 -2
-48 -6 -84 -9 -37 -4 -75 -9 -86 -11 -11 -2 -37 -6 -58 -9 -22 -4 -61 -11 -89
-16 -27 -5 -61 -11 -75 -14 -14 -2 -71 -16 -128 -30 -522 -132 -1009 -414
-1383 -801 -104 -107 -117 -122 -214 -250 -128 -170 -252 -382 -319 -545 -15
-36 -31 -74 -36 -85 -33 -72 -94 -284 -120 -416 -39 -199 -49 -313 -45 -539 2
-118 5 -226 8 -240 3 -14 8 -47 12 -75 9 -75 33 -191 56 -275 12 -41 22 -79
23 -85 1 -5 5 -16 9 -22 5 -7 6 -13 3 -13 -3 0 1 -19 10 -42 111 -300 225
-514 392 -738 154 -206 372 -420 594 -584 302 -222 685 -400 1063 -495 66 -16
134 -32 150 -35 41 -7 86 -15 110 -20 11 -3 47 -8 80 -12 33 -3 62 -8 65 -9
14 -8 255 -20 405 -19 154 0 326 9 379 20 12 2 46 7 76 10 30 3 57 7 60 9 3 2
26 6 50 10 25 3 65 11 90 17 25 5 54 11 64 14 118 24 343 96 499 160 473 193
912 529 1207 920 33 43 63 84 68 89 14 18 109 169 132 210 148 261 263 580
306 853 35 215 38 537 9 737 -47 312 -174 669 -322 903 -18 29 -33 55 -33 58
0 9 -117 181 -183 269 -339 450 -802 790 -1322 969 -160 56 -384 113 -473 122
-18 2 -36 5 -40 8 -4 2 -39 7 -77 11 -39 4 -81 9 -95 12 -24 6 -487 13 -492 8z"/>
</g>
</svg>
