<?xml version="1.0" standalone="no"?>
<!DOCTYPE svg PUBLIC "-//W3C//DTD SVG 20010904//EN"
 "http://www.w3.org/TR/2001/REC-SVG-20010904/DTD/svg10.dtd">
<svg version="1.0" xmlns="http://www.w3.org/2000/svg"
 width="636.000000pt" height="880.000000pt" viewBox="0 0 636.000000 880.000000"
 preserveAspectRatio="xMidYMid meet">

<g transform="translate(0.000000,880.000000) scale(0.100000,-0.100000)"
fill="#000000" stroke="none">
<path d="M3790 8764 c-1319 -274 -2438 -1015 -3123 -2069 -351 -541 -564
-1135 -644 -1795 -25 -205 -24 -678 0 -880 116 -939 520 -1779 1187 -2464 333
-342 656 -595 1050 -821 125 -72 382 -205 396 -205 4 0 -38 33 -92 74 -351
261 -626 589 -814 971 -93 189 -139 310 -185 489 -48 188 -66 316 -72 526 -9
308 27 558 123 850 95 290 266 597 462 830 174 207 451 451 664 583 l76 48
-98 202 c-110 227 -177 384 -245 567 -335 911 -236 1699 293 2330 269 321 666
593 1112 761 91 34 64 35 -90 3z"/>
<path d="M4413 8525 c-526 -80 -975 -371 -1228 -796 -91 -153 -160 -352 -186
-538 -15 -106 -6 -379 16 -476 227 -1021 1449 -1555 2450 -1070 453 219 761
602 867 1076 33 148 32 416 -1 569 -131 608 -628 1075 -1294 1216 -102 21
-155 26 -327 29 -143 3 -233 0 -297 -10z"/>
<path d="M4185 5243 c-11 -2 -72 -16 -135 -30 -248 -53 -587 -183 -811 -308
-252 -142 -441 -286 -649 -494 -406 -407 -656 -901 -736 -1456 -22 -148 -25
-486 -5 -625 22 -160 60 -328 107 -469 282 -846 1002 -1513 1914 -1776 127
-37 369 -90 376 -83 2 3 11 69 21 149 21 181 24 662 5 824 -69 590 -210 986
-622 1745 -274 505 -359 706 -411 970 -27 135 -31 367 -10 490 45 256 159 469
361 670 158 158 325 269 535 355 108 44 119 52 60 38z"/>
<path d="M4290 4960 c-612 -131 -920 -749 -624 -1254 53 -90 163 -210 249
-271 393 -279 960 -235 1290 100 447 454 255 1179 -369 1391 -164 56 -381 70
-546 34z"/>
</g>
</svg>
